<?xml version="1.0" encoding="utf-8"?>
<!-- Generator: Adobe Illustrator 22.0.1, SVG Export Plug-In . SVG Version: 6.00 Build 0)  -->
<svg version="1.1" id="Layer_1" xmlns="http://www.w3.org/2000/svg" xmlns:xlink="http://www.w3.org/1999/xlink" x="0px" y="0px"
	 viewBox="0 0 576 576" style="enable-background:new 0 0 576 576;" xml:space="preserve">
<style type="text/css">
	.st0{fill:#FFFFFF;}
	.st1{fill-rule:evenodd;clip-rule:evenodd;fill:#FFFFFF;}
	.st2{fill:none;stroke:#000000;stroke-width:6.6599;stroke-miterlimit:10;}
	.st3{fill:#CE0E2D;}
	.st4{fill:#D2D3D4;}
	.st5{stroke:#000000;stroke-width:7.1722;stroke-miterlimit:10;}
</style>
<g>
	<circle class="st0" cx="288" cy="288" r="288"/>
	<path d="M288,566.3C134.3,566.3,9.7,441.7,9.7,288C9.7,134.3,134.3,9.7,288,9.7S566.3,134.3,566.3,288
		C566.3,441.7,441.7,566.3,288,566.3L288,566.3z"/>
	<path class="st1" d="M119.8,289.7c0-92.3,74.8-167.1,167.1-167.1c92.3,0,167.1,74.8,167.1,167.1c0,92.3-74.8,167.1-167.1,167.1
		C194.6,456.9,119.8,382,119.8,289.7L119.8,289.7z M286.9,108.8c99.9,0,181,81,181,181c0,99.9-81,181-181,181c-100,0-181-81-181-181
		C106,189.8,187,108.8,286.9,108.8L286.9,108.8z"/>
	<polygon points="548.3,360.3 24.7,360.3 28.9,214.2 547.7,214.2 	"/>
	<g>
		<path class="st0" d="M108.2,167.8l-9,13.3l-0.5-0.3l-13.7-34.5l0.3-0.5l22,14.9l2-3l3.9,2.6l-2,3l5.7,3.9l-3,4.5L108.2,167.8z
			 M100.2,171.4l4.2-6.2l-6.2-4.2c-0.8-0.6-1.6-1.1-2.3-1.6c-0.7-0.5-1-0.8-1.1-0.8c0,0,0.1,0.1,0.2,0.4c0.1,0.2,0.3,0.5,0.4,0.9
			c0.2,0.3,0.4,0.7,0.6,1.1c0.2,0.4,0.4,0.8,0.5,1.3L100.2,171.4z"/>
		<path class="st0" d="M125.9,154.8c-1.7,0.7-3.6,0.9-5.5,0.7c-2-0.2-4.1-0.8-6.3-1.9c-2.2-1.1-4.4-2.6-6.7-4.6l-0.7-0.6
			c-2.2-2-4-4-5.3-6.1c-1.3-2.1-2.1-4.1-2.5-6c-0.4-2-0.4-3.8,0.1-5.6c0.5-1.8,1.3-3.3,2.6-4.7c1.3-1.4,2.7-2.4,4.4-3.1
			c1.7-0.6,3.5-0.9,5.5-0.7c2,0.2,4.1,0.8,6.3,1.9c2.2,1.1,4.4,2.6,6.6,4.6l0.7,0.6c2.3,2,4,4.1,5.3,6.1c1.3,2.1,2.1,4.1,2.5,6.1
			c0.4,2,0.4,3.8-0.1,5.6c-0.5,1.8-1.3,3.3-2.6,4.7C129.1,153.2,127.6,154.2,125.9,154.8z M127.4,142c-0.9-2.6-3-5.4-6.3-8.4
			l-0.5-0.4c-3.3-3-6.3-4.8-9-5.4c-2.6-0.6-4.7-0.1-6.2,1.6c-1.5,1.6-1.8,3.8-0.9,6.3c0.9,2.6,3,5.3,6.3,8.3l0.5,0.4
			c3.3,3,6.3,4.8,9,5.4c2.6,0.6,4.7,0.1,6.2-1.6C128,146.7,128.3,144.6,127.4,142z"/>
		<path class="st0" d="M150.3,116.8l-23.6-14.9l4.7-3.6l12.4,8c0.5,0.3,1.1,0.7,1.6,1.1c0.6,0.4,1.1,0.8,1.7,1.2
			c0.5,0.4,0.9,0.7,1.3,1c0.4,0.3,0.6,0.5,0.7,0.5c0,0-0.1-0.3-0.3-0.7c-0.2-0.4-0.4-0.9-0.6-1.5c-0.2-0.6-0.5-1.2-0.8-1.9
			c-0.3-0.7-0.5-1.3-0.7-1.9l-4.4-14l4.6-3.4l8,26.6l7,9.3l-4.6,3.5L150.3,116.8z"/>
		<path class="st0" d="M154.4,81.9l15.6-9l2.6,4.4L162,83.4l7.7,13.3l8.9-5.2l2.6,4.4l-8.9,5.2l3.5,6.1l11-6.4l2.6,4.4l-16,9.3
			L154.4,81.9z"/>
		<path class="st0" d="M189.5,63.3l0.7-0.3l26,30.5l-5.6,2.3l-3.1-3.8l-10.3,4.2l0.4,4.9l-5.3,2.2L189.5,63.3z M196.7,91.2l7.5-3.1
			l-5.7-7c-0.3-0.4-0.7-0.8-1.1-1.3c-0.4-0.5-0.7-1-1-1.4c-0.3-0.4-0.6-0.8-0.8-1.2c-0.2-0.3-0.4-0.6-0.4-0.7c0,0.1,0,0.3,0.1,0.7
			c0.1,0.4,0.1,0.9,0.2,1.4c0.1,0.5,0.2,1.1,0.2,1.8c0.1,0.6,0.1,1.2,0.2,1.7L196.7,91.2z"/>
		<path class="st0" d="M227.6,80.2c-0.4,0.2-0.8,0.4-1.2,0.5c-0.4,0.2-0.8,0.3-1.3,0.4l-1.7,0.5l2.5,8.9l-5.6,1.6L210,55.8l7.3-2.1
			c2-0.6,3.8-0.8,5.6-0.6c1.8,0.2,3.4,0.6,4.9,1.5c1.5,0.8,2.8,2,3.9,3.5c1.1,1.5,2,3.3,2.6,5.4l0.2,0.5c0.7,2.6,0.9,5,0.4,7.3
			c-0.5,2.2-1.4,4.1-2.8,5.7l9.1,9.2l-6,1.7L227.6,80.2z M222.1,77l1.7-0.5c2.6-0.7,4.3-2.1,5-4.1c0.7-2,0.8-4.3,0-6.9l-0.1-0.4
			c-0.8-2.7-2-4.6-3.6-5.8c-1.6-1.2-3.8-1.4-6.4-0.7l-1.7,0.5L222.1,77z"/>
		<path class="st0" d="M247.2,84.6c-1.6-0.4-3.1-1.1-4.3-2.1l2.8-4.6c0.8,0.6,1.8,1.1,2.8,1.5c1,0.4,2.2,0.5,3.6,0.3
			c1.6-0.2,2.8-0.9,3.5-1.9c0.8-1,1.1-2.2,0.9-3.6l-0.1-0.4c-0.2-1.1-0.6-2-1.3-2.9c-0.7-0.8-1.8-1.7-3.4-2.6l-4.1-2.5
			c-1-0.6-1.8-1.2-2.6-1.8c-0.8-0.6-1.5-1.3-2.1-1.9c-0.6-0.7-1.1-1.5-1.5-2.3c-0.4-0.9-0.7-1.8-0.8-2.9l-0.1-0.4
			c-0.2-1.3-0.2-2.5,0.1-3.6c0.3-1.1,0.8-2.2,1.5-3.1c0.7-0.9,1.6-1.6,2.7-2.2c1.1-0.6,2.3-1,3.7-1.2c1.8-0.3,3.2-0.3,4.5-0.1
			c1.2,0.2,2.5,0.6,3.7,1.2l-2,4.8c-0.7-0.4-1.5-0.7-2.3-0.9c-0.8-0.2-1.7-0.2-2.8-0.1c-1.1,0.2-2,0.6-2.7,1.4
			c-0.7,0.8-0.9,1.7-0.8,2.8l0,0.3c0.2,1.2,0.6,2.1,1.4,2.9c0.7,0.7,1.8,1.5,3.3,2.4l4.2,2.5c2.1,1.2,3.7,2.6,4.9,3.9
			c1.2,1.4,1.9,3.1,2.2,5.1l0.1,0.5c0.2,1.4,0.2,2.7-0.1,4c-0.3,1.3-0.8,2.4-1.6,3.4c-0.8,1-1.8,1.9-3,2.6c-1.3,0.7-2.7,1.2-4.5,1.5
			C250.7,85.1,248.8,85,247.2,84.6z"/>
		<path class="st0" d="M287.1,80.6c-1.6-0.9-3-2.1-4.2-3.8c-1.2-1.6-2-3.6-2.6-6c-0.6-2.4-0.9-5-0.8-8l0-1c0.1-3,0.5-5.6,1.2-8
			c0.7-2.3,1.7-4.2,3-5.8c1.2-1.6,2.7-2.8,4.4-3.5c1.7-0.8,3.5-1.1,5.6-1.1c2,0.1,3.9,0.5,5.5,1.4c1.6,0.9,3,2.1,4.2,3.8
			c1.2,1.6,2,3.6,2.6,6c0.6,2.3,0.9,5,0.8,8l0,1c-0.1,3-0.5,5.6-1.2,8c-0.7,2.3-1.7,4.3-3,5.9c-1.2,1.6-2.7,2.8-4.4,3.5
			c-1.7,0.8-3.5,1.2-5.6,1.1C290.6,82,288.7,81.5,287.1,80.6z M298.4,73.5c1.5-2.3,2.2-5.7,2.4-10.2l0-0.7c0.1-4.5-0.5-8-1.8-10.3
			c-1.3-2.3-3.1-3.6-5.5-3.6c-2.3-0.1-4.2,1-5.7,3.3c-1.5,2.3-2.3,5.7-2.4,10.2l0,0.7c-0.1,4.5,0.5,8,1.8,10.3
			c1.3,2.3,3.2,3.6,5.5,3.6C295.1,76.8,297,75.7,298.4,73.5z"/>
		<path class="st0" d="M317.4,45.5l17.3,2.7l-0.8,5l-11.6-1.8L320,66.6l10,1.6l-0.8,5l-10-1.6l-1.9,12l-5.8-0.9L317.4,45.5z"/>
		<path class="st0" d="M357.7,53.9l7.5,2.6c2.3,0.8,4.2,1.9,5.8,3.4c1.6,1.4,2.7,3.1,3.5,5.1c0.8,2,1.1,4.1,1.1,6.5
			c0,2.4-0.5,4.9-1.5,7.6l-0.3,0.8c-0.9,2.7-2.1,4.9-3.5,6.8c-1.4,1.9-3,3.4-4.9,4.4c-1.8,1.1-3.8,1.7-5.9,1.9
			c-2.1,0.2-4.4-0.1-6.7-0.9l-7.5-2.6L357.7,53.9z M354.2,87.1c3,1.1,5.8,0.8,8.2-0.9c2.4-1.7,4.4-4.5,5.8-8.5l0.2-0.5
			c1.4-4.1,1.7-7.5,0.9-10.2c-0.8-2.7-2.8-4.7-6.1-5.8l-1.7-0.6l-9,26L354.2,87.1z"/>
		<path class="st0" d="M386.1,95.7c-0.4-0.1-0.8-0.3-1.3-0.4c-0.4-0.2-0.8-0.3-1.2-0.5l-1.6-0.8l-4.1,8.2l-5.2-2.6l16.9-33.7
			l6.8,3.4c1.8,0.9,3.3,2,4.5,3.3c1.2,1.3,2.1,2.8,2.6,4.4c0.5,1.6,0.7,3.3,0.5,5.2c-0.2,1.8-0.8,3.7-1.8,5.7l-0.2,0.5
			c-1.2,2.4-2.8,4.3-4.6,5.6c-1.8,1.3-3.8,2.1-5.9,2.3l0.5,12.9l-5.6-2.8L386.1,95.7z M384.2,89.6l1.5,0.8c2.4,1.2,4.6,1.3,6.4,0.4
			c1.9-1,3.4-2.6,4.6-5.1l0.2-0.4c1.3-2.5,1.7-4.8,1.3-6.7c-0.4-2-1.8-3.6-4.2-4.8l-1.5-0.8L384.2,89.6z"/>
		<path class="st0" d="M417,80.4l15,9.9l-2.8,4.3L419,87.8l-8.5,12.8l8.6,5.7l-2.8,4.3l-8.6-5.7l-3.9,5.9l10.6,7l-2.8,4.3
			l-15.4-10.2L417,80.4z"/>
		<path class="st0" d="M448.7,103.1l0.5,0.5l-15.2,37.1l-4.6-4l2-4.5l-8.5-7.2l-4.2,2.6l-4.4-3.7L448.7,103.1z M427.2,122.3l6.2,5.3
			l3.6-8.2c0.2-0.5,0.4-1,0.7-1.5c0.3-0.6,0.5-1.1,0.8-1.6c0.2-0.5,0.5-0.9,0.6-1.3c0.2-0.4,0.3-0.6,0.4-0.7c-0.1,0-0.3,0.2-0.6,0.4
			c-0.3,0.2-0.7,0.5-1.2,0.8c-0.4,0.3-0.9,0.7-1.5,1c-0.5,0.4-1,0.7-1.5,1L427.2,122.3z"/>
		<path class="st0" d="M466.5,119.5l0.4,0.5l-8.1,21.8l22.5-5.4l0.4,0.5l-27.6,26.2l-3.7-4.2l11.6-11.1c0.3-0.3,0.7-0.6,1.1-1
			c0.4-0.4,0.8-0.7,1.1-1c0.4-0.3,0.7-0.6,0.9-0.8l0.4-0.3c0,0-0.2,0.1-0.6,0.2c-0.3,0.1-0.8,0.2-1.3,0.3c-0.5,0.1-1,0.3-1.6,0.4
			c-0.6,0.1-1.1,0.3-1.6,0.4l-8.5,1.6l-0.3-0.3l2.7-8.1c0.2-0.4,0.3-0.9,0.5-1.5c0.2-0.5,0.4-1,0.6-1.5c0.2-0.5,0.3-0.9,0.5-1.2
			c0.1-0.3,0.2-0.5,0.2-0.6l-0.4,0.3c-0.2,0.2-0.5,0.5-0.9,0.8c-0.3,0.3-0.7,0.6-1.1,1c-0.4,0.3-0.7,0.7-1.1,1l-12.4,10.1l-3.7-4.2
			L466.5,119.5z"/>
		<path class="st0" d="M459,169.2c-0.3-1.7-0.3-3.3,0.1-4.8l5.3,0.6c-0.2,1-0.2,2.1-0.2,3.1c0.1,1.1,0.5,2.2,1.2,3.3
			c0.9,1.3,1.9,2.1,3.2,2.5c1.2,0.3,2.4,0.1,3.6-0.7l0.4-0.2c0.9-0.6,1.6-1.4,2-2.4c0.4-1,0.8-2.4,1-4.2l0.6-4.8
			c0.1-1.1,0.3-2.2,0.5-3.1c0.2-1,0.5-1.9,0.9-2.7c0.4-0.8,0.9-1.6,1.5-2.3c0.6-0.7,1.4-1.3,2.3-1.9l0.3-0.2
			c1.1-0.7,2.2-1.2,3.4-1.4c1.2-0.2,2.3-0.2,3.4,0.1c1.1,0.3,2.2,0.8,3.2,1.5c1,0.7,1.9,1.7,2.7,2.9c1,1.5,1.6,2.8,2,4
			c0.3,1.2,0.5,2.5,0.4,3.8l-5.2,0.2c0-0.8,0-1.6-0.2-2.5c-0.1-0.8-0.5-1.7-1.1-2.6c-0.6-0.9-1.4-1.5-2.4-1.8
			c-1-0.3-1.9-0.1-2.8,0.5l-0.2,0.2c-1,0.7-1.7,1.5-2,2.5c-0.4,1-0.6,2.3-0.8,4l-0.5,4.9c-0.3,2.4-0.8,4.4-1.6,6.1
			c-0.8,1.6-2,3-3.7,4.2l-0.5,0.3c-1.2,0.8-2.4,1.3-3.7,1.6c-1.3,0.3-2.5,0.3-3.8,0c-1.2-0.3-2.4-0.8-3.6-1.7
			c-1.2-0.8-2.2-2-3.2-3.4C460,172.6,459.2,170.8,459,169.2z"/>
	</g>
	<g>
		<path class="st2" d="M318.1,477.8c-20.2,0-36.6,16.2-36.6,36.2c0,20,16.4,36.2,36.6,36.2c20.2,0,36.6-16.2,36.6-36.2
			C354.7,494,338.3,477.8,318.1,477.8 M318.1,540.2c-14.6,0-26.4-11.7-26.4-26.2c0-14.5,11.8-26.2,26.4-26.2
			c14.6,0,26.4,11.7,26.4,26.2C344.6,528.5,332.7,540.2,318.1,540.2"/>
		<polygon class="st2" points="267.8,484.5 257.8,484.5 257.8,517.2 225.5,517.2 270.9,451.8 259,451.8 207.6,526.2 219.4,526.2 
			257.8,526.2 257.8,547.1 257.8,550.4 267.8,550.4 267.8,547.1 267.8,526.2 274.4,526.2 274.4,517.2 267.8,517.2 		"/>
	</g>
	<g>
		<path class="st3" d="M318.2,477.6c-20.2,0-36.6,16.2-36.6,36.2c0,20,16.4,36.2,36.6,36.2c20.2,0,36.6-16.2,36.6-36.2
			C354.8,493.8,338.4,477.6,318.2,477.6 M318.2,540c-14.6,0-26.4-11.7-26.4-26.2c0-14.5,11.8-26.2,26.4-26.2
			c14.6,0,26.4,11.7,26.4,26.2C344.7,528.3,332.8,540,318.2,540"/>
		<polygon class="st3" points="267.9,484.3 257.9,484.3 257.9,517 225.6,517 271.1,451.6 259.1,451.6 207.7,526 219.5,526 
			257.9,526 257.9,546.9 257.9,550.2 267.9,550.2 267.9,546.9 267.9,526 274.5,526 274.5,517 267.9,517 		"/>
	</g>
	<path class="st0" d="M445.8,287.2c0,87.2-70.7,157.8-157.8,157.8c-87.2,0-157.8-70.7-157.8-157.8S200.8,129.4,288,129.4
		C375.2,129.4,445.8,200,445.8,287.2"/>
	<path class="st4" d="M242,283c-45.9,0-84.9,29.6-98.9,70.8c25.8,53.2,80.4,89.9,143.6,89.9c16.5,0,32.5-2.5,47.5-7.2
		c7.8-14.6,12.3-31.4,12.3-49.1C346.4,329.8,299.6,283,242,283"/>
	<path d="M449.1,282.9c0,0-1.5-0.7-2.9-1.4c-1.7-0.8-3.3-1.8-2.8-1.9c0.8-0.1,2.2-1.7,2.7-2.5c0-0.2,0-0.5,0-0.7
		c-0.9-1.4-5.4-7.5-6.4-6.8c-1.1,0.8-10,2.6-10,2.6s-0.8,0,1.6-3.1s6.7-2.9,6.7-2.9l-2.6-7.2c0,0,0.5-1.1-5.1-1.1
		c-5.6,0-14.1,7.9-17,7.9c-2.9,0-5.6-0.7-5.6-0.7s3.3-4.6,5.4-4.6c2.1,0,4.4,0,5.7-1.8c1.3-1.8,4.3-2.9,4.3-2.9s-2.8-1.5-4.8-2
		c-2-0.5-2-4.8-3.1-5.1c-1.1-0.3-1.1-1.3-3.1-1.3c-2,0-4.9,5.1-6.2,3.8c-1.3-1.3-6.6-3.6-6.6-3.6c0.3-1.3,5.4-4.9,5.4-4.9
		c-1.1-2.8-6.2-2.9-6.2-2.9c2.5-2.5,6.2-2.3,9.8-3.4c3.6-1.1,7.9-4.6,7.9-4.6c0.7,1.6-0.2,3.6-0.2,3.6s4.4,2.6,7.2,2.6
		c2.8,0,4.8-1.8,7.9-1.8c3.1,0,3.9,0.8,3.9,0.8l-5.1,3.1c0,0,6,1.7,9.8,1.8c-0.7-1.9-1.2-3.9-1.8-5.8c-1-3.4-1.8-6.9-2.7-10.3
		c0,0-0.1,0-0.1,0c-6.5,1.1-12,4.4-12,4.4s1.6-2.6,6.1-6.9c1.1-1.1,2.5-1.8,3.9-2.3c0.2-0.1,0.5-0.2,0.8-0.2
		c-0.2-0.7-0.4-1.5-0.6-2.2c-0.4-1.3-0.8-2.5-1.2-3.7c-1.1,0.3-2.7-1.3-3.3-1.9c-0.1-0.1,0.1-0.3,0.2-0.1c0.7,0.7,1.8,1.9,2.9,1.9
		c0,0,0.1,0,0.1,0c-0.4-1.1-0.8-2.3-1.3-3.4c-0.8-0.2-1.7-0.4-2.6-0.6c-4.1-0.9-8-1.6-7.8-1.7c0.5-0.3,5.1-1.6,5.1-1.6
		c0.2-0.1,0.5-0.2,0.7-0.2c0.8-0.3,1.5-0.6,2.1-0.8c-1.1-2-2.3-3.9-3.6-5.7c-0.4-0.2-0.6-0.3-0.6-0.4c0,0,0.1-0.1,0.2-0.1
		c-0.2-0.2-0.3-0.5-0.5-0.7c-1.7-2.4-3.5-4.6-5.8-6.5c-2.1-1.8-4.3-3.4-6.3-5.1c-1-0.8-2.1-1.8-3.1-2.9
		c-6.8,6.7-14.3,17.7-14.3,17.7c0-7.5,11.4-23.8,11.5-23.9c0,0,0,0,0,0c-3,0-8.7,8-9.5,5.9c-0.8-2,4.6-8.7,4.8-11
		c-4-4.1-8.1-7.9-12.5-11.6c-0.3-0.3-0.6-0.5-0.9-0.7c1.5,1.7,4.5,7.2,4.5,25.2c0,24.1-5.4,33.9-7.5,33.9c-2.1,0-1.1-7-2-12.1
		c-0.8-5.1-5.1-10.6-4.4-8c0.7,2.6,1,9-0.2,9.8c-1.1,0.8-3.1-13.4-5.6-16.2c-2.5-2.8-5.9-0.7-5.9-0.7l-2.3-1.8
		c-6.2-4.3-11.6-3.8-11.6-3.8l1.1,9.3c0,0-3.1-8.2-7.7-8.4c-4.6-0.2-15.6,1-15.6,1c7.5,2.5,25.2,15.6,25.2,15.6
		c-4.8-3.1-20.6-7.2-25.2-7.2c-4.6,0-9.3,2.6-10.8,0.7c-1.5-2-6.9-4.1-6.9-4.1c1.6-1,5.2,1.6,6.1,0c0.8-1.6,12.6-8.4,17.2-11.1
		c4.5-2.7,4.6-4.5,4.6-4.6c0,0.1,0.1,0.5,3.8,0.5c3.9,0,10.8-15.1,10.8-15.1l-0.3,7.4c2.3-0.3,6.4-9.5,8.8-9.5
		c2.5,0,0.2,2.8,2.9,0.7c2.8-2.1,4.4-4.1,4.4-4.1c-40.8,0-49.3,19.2-50.8,22.6c-1.5,3.4-2.1,1.1-2.1,1.1s5.7-14.6,9.7-30.3
		c2.1-8.4,5.2-14.9,7.5-19.2c-1.4-0.5-2.9-0.9-4.3-1.3c-1.5,1.4-2.6,2.6-2.6,2.6c0.5-0.9,0.9-2,1.2-3c-1.7-0.5-3.5-0.9-5.3-1.4
		c-0.5,1-0.6,1.8-0.6,1.8c-0.2-0.5-0.3-1.2-0.4-2c-2-0.5-4-0.9-6-1.3c0,0,0,0,0,0c-3.4,3.6-2.9,18.8-2.9,18.8
		c-2.1-0.8-1.8-8-2.6-10.2c-0.8-2.1-4.3-4.3-3.4-3.4c0.8,0.8,0.2,9.7,0.2,9.7c-0.8-1.5-4.9-3.9-4.9-3.9
		c-8.2,2.1-16.8,22.3-16.8,22.3c-15.5-22.9-21.6-22.5-20.7-22.1c0.9,0.4,2,8.7,1.1,8.3c-0.9-0.4-8.5-11.1-8.5-11.1
		c-4.6-1.1-5.9,1.3-5.9,1.3c23.2,24,21.6,34.7,21.6,34.7c8.1,0,13.3,5.2,13.3,7.4c-2.6,0-15.9-6.6-32.1-6.6
		c-32.1,0-47.4,18.1-47.4,18.1l12.2-0.9c5.9-7,8.1-5.9,8.1-5.9c-0.7,1.5,0.4,4.2,0.4,4.2s5.7-7.2,7.9-9.4c2.2-2.2,2.4-0.2,2.2,1.1
		c-0.2,1.3-9.4,10-9.4,11.8c0,1.7,3.3,3.1,6.8,4.4c2-1.3,11.8-11.1,11.8-11.1s-3.5,5.2-3.5,7.6c0,2.4,3.9,3.5,3.9,3.5
		c1.7-6.6,9.6-14.4,9.6-14.4c-3.9,6.3-5.9,15.3-5.9,15.3c12.2,3.5,9.6,8.1,9.6,8.1c-38.4,6.3-38,20.3-38,20.3l2.2-1.7
		c2.8-3.5,8.3-5.2,8.3-5.2c-7.4,8.1-12.4,16.8-15,23.5c3.4,1.2,6.7,2.5,9.9,4c0.8-1.1,1-1.7,1-2c0.3,0.1,1.2,0.2,3.9,0.2
		c5,0,12.2-4.1,15.1-5.5c2.8-1.3,5.2-5,5.2-5c1.1-0.2,3.7-6.6,3.7-6.6s-1.1,7,0.4,7s4.8-4.4,8.3-4.4c3.5,0,4.4,1.1,4.4,1.1
		c-10.3,9-8.7,18.6-8.7,18.6s2.6-2,4.4-3.3c1.7-1.3,1.3,1.7,1.3,1.7l-6.6,7.4c0,2,1.7,3.1,1.7,3.1c4.8-7.6,13.8-10,8.3-6.1
		c-5.1,3.7-9.5,11.6-10,18.9c2.6,3.1,5,6.5,7.2,9.9c0.1-0.1,0.2-0.2,0.2-0.2c-0.4-6.6,2.6-10.9,2.6-10.9c-0.7,2,1.1,7.2,1.1,7.2
		c0.7-1.3,5.9-7.6,5.9-7.6c0-2.8,0.2-10.7,1.3-10.7c1.1,0,3.3,7.4,3.3,7.4s5.2-5.7,5.2-11.1c0-5.5-5.7-18.1-5.7-18.1
		c2.4-0.4,12.7,14,12.7,14c1.7-1.5,5.7-7.6,5.7-7.6c-0.2-1.3-3.7-5.5-2.6-5.2c1.1,0.2,5.2,2.8,5.2,2.8c2-2.8,3.3-10.3,3.3-10.3
		c7,7,24.9,42.6,24.9,42.6c-6.3,7.9-3.3,15.7-3.3,15.7c1.1-2.4,3.9-2.8,3.9-2.8c-4.1,7.4-4.1,13.3-4.1,13.3
		c3.1-0.4,12.2-5.5,12.2-5.5c11.4,37.6,23.2,90,23.2,96.1c0,6.1-6.6,27.5-8.3,27.1c-1.4-0.4-7-5.4-11.3-9.1c-1-0.8-1.9-1.6-2.6-2.2
		c-4.4-3.5-14.9-9.2-17.9-9.2c-3.1,0-4.8,0.4-7,3.1c-2.2,2.6-4.8,1.3-7,1.3c-2.2,0-7.9-6.6-11.4-10.9c-3.5-4.4-7-12.2-13.1-14
		c-6.1-1.7-3.5-1.3-4.8,2.6s-5.2,7.4-10.9,15.3c-5.7,7.9-9.6,10.9-14,17c-4.4,6.1-9.6,6.6-15.3,9.6c-1.2,0.6-2.3,1.3-3.3,1.9h-29.4
		l0.6,0.4c23.2,13.1,49.9,20.6,78.5,20.6c16.5,0,32.5-2.5,47.5-7.2c6.4-2,12.6-4.4,18.6-7.1c4.5-2,8.8-4.3,13-6.7
		c3.1-1.8,6.1-3.7,9.1-5.6c-0.1-7.5-0.4-16.8-0.3-17.2c9.5-22.9,12.9-60.3,12.9-88.1c0-27.8-2.3-29.8-2.3-37.5v-11.3
		c28.8,4.3,50.1,28.7,50.1,28.7l1.8-2.8c0.9-0.6,5.1,2.8,8.7,5.6c2.8,2.2,5.1,4,5.4,3.6C451.7,297.1,449.1,282.9,449.1,282.9z
		 M275.3,202.3l-3.7-0.2c-1.3-4.2,3.9-12.7,3.9-12.7L275.3,202.3z M279,201.8c-0.2-3.3,2.8-7.6,2.8-7.6c0.2,1.1,2.4,7.4,2.4,7.4
		L279,201.8z M300.6,156.6c0,0,1.7-3.1,3.1-3.5c1.3-0.4,8.7,8.7,10.3,12.7C305.2,159.5,300.6,156.6,300.6,156.6z M344.4,215.7
		c0-2.1-2.6-6.2-2.6-6.2c2.6,0,14.6,8.8,14.6,8.8c1.1-0.5,2.5-2.5,2.5-2.5c1.1,0.7,6.2,5.1,6.2,5.1c-4.9-1.5-28-4.4-28-4.4
		C339.8,214.9,344.4,215.7,344.4,215.7z M338.8,261.3c-5.4-13.8-19.5-31.3-19.5-31.3s3.9,1.6,4.3,0.7c0.3-1,1.3-2.9,1.3-2.9
		c3.3,4.9,13.1,10.8,16.7,11.1c3.6,0.3,4.9-0.8,4.9-0.8c-2.1-1-1.3-3.6-1.3-3.6c3.4,0.7,7.2,7,7.2,7c0.8-2,1-5.7,1-5.7
		s2,0.3,4.6,1.1c2.6,0.8,6.2,1.1,6.4,2.3c0.2,1.1-2.3,1.8-6.4,4.1C353.9,245.5,338.8,261.3,338.8,261.3z M372.1,365.1
		c0,0-16.9-65.9-23.3-79.3l1.6-3.3c0,0,2.3,5.2,2.5,7.4c0,0,0.7-11.1-1.1-15.4c0,0,5.2,9,5.9,12.8c0,0,8.5-6.4,8.5-8.8
		c0-2.5-4.9-12.9-4.9-12.9s4.3,2.5,5.4,5.4c0,0,6.4-10.2,8-10.2c0,0,3.3,12.3,3.3,41.8C378,353.3,372.1,365.1,372.1,365.1z
		 M370.6,223.7c-0.5-1.6-4.9-5.7-4.9-5.7s7-1.6,8-1.1c1,0.5,4.6,6.9,4.6,6.9S371.1,225.4,370.6,223.7z M420.5,213.9
		c0,0-0.9,3.7-4.1,4.6c-3.3,0.9-5,0.2-5,0.2s-7.6,9-18.6,11.4C392.8,230,403.3,216.5,420.5,213.9z"/>
	<path d="M288,133.1c20.9,0,41.2,4.1,60.3,12.2c18.4,7.8,35,19,49.2,33.2c14.2,14.2,25.4,30.8,33.2,49.2
		c8.1,19.1,12.2,39.4,12.2,60.3c0,20.9-4.1,41.2-12.2,60.3c-7.8,18.4-19,35-33.2,49.2c-14.2,14.2-30.8,25.4-49.2,33.2
		c-19.1,8.1-39.4,12.2-60.3,12.2c-20.9,0-41.2-4.1-60.3-12.2c-18.4-7.8-35-19-49.2-33.2c-14.2-14.2-25.4-30.8-33.2-49.2
		c-8.1-19.1-12.2-39.4-12.2-60.3c0-20.9,4.1-41.2,12.2-60.3c7.8-18.4,19-35,33.2-49.2c14.2-14.2,30.8-25.4,49.2-33.2
		C246.8,137.2,267.1,133.1,288,133.1 M288,128.5c-88.1,0-159.5,71.4-159.5,159.5c0,88.1,71.4,159.5,159.5,159.5
		S447.5,376.1,447.5,288C447.5,199.9,376.1,128.5,288,128.5"/>
	<path class="st5" d="M526.5,242H348.7c-2.1,0-3.1-2.6-1.5-4c8.3-6.9,11.3-19.9,2.2-32.2c-0.1-0.2-0.3-0.4-0.5-0.5
		c-17.8-13.3-37.3-0.9-37.3,16.1c0,6.7,3,12.6,7.7,16.6c1.6,1.4,0.6,4-1.5,4H38v0c1.3,1.9,0.3,59.5,0,78.7v3.9c0,1.2,1,2.3,2.3,2.3
		h486.2c1.2,0,2.3-1,2.3-2.3v-80.3C528.7,243,527.7,242,526.5,242z"/>
	<g>
		<g id="_xAE__2_">
			<path class="st0" d="M532.4,310.1c-3.1,0-5.5,2.5-5.5,5.5c0,3.1,2.5,5.5,5.5,5.5s5.5-2.5,5.5-5.5
				C537.9,312.5,535.4,310.1,532.4,310.1z M532.4,319.8c-2.3,0-4.2-1.9-4.2-4.2c0-2.3,1.9-4.2,4.2-4.2c2.3,0,4.2,1.9,4.2,4.2
				C536.6,317.9,534.7,319.8,532.4,319.8z"/>
			<path class="st0" d="M534.6,314.7c0-1.3-0.6-1.8-1.9-1.8h-2.1v5.7h1v-1.9h1.3l0.8,1.9h1.1l-0.9-2.2
				C534.3,316.1,534.6,315.6,534.6,314.7z M532.7,315.7h-1.2v-1.9h1.2c0.6,0,0.9,0.3,0.9,0.9C533.6,315.3,533.4,315.7,532.7,315.7z"
				/>
		</g>
		<polygon id="N_4_" class="st0" points="496.3,247.1 496.4,269.3 487.2,247.1 458.6,247.1 458.6,321.1 485.7,321.1 485.7,292.8 
			497.3,321.1 523.9,321.1 523.9,247.1 		"/>
		<path id="A_2_" class="st0" d="M423.8,321.1h30.7l-13.1-74.1h-46.9l-12.1,74.1h30.3l1.6-17.6h7.8L423.8,321.1z M415.8,287.2
			l2-18.8h1.1l2,18.8H415.8z"/>
		<g id="M-Dot_2_">
			
				<ellipse transform="matrix(0.9995 -3.260234e-02 3.260234e-02 0.9995 -7.0402 10.9846)" class="st3" cx="333.3" cy="221.4" rx="21.7" ry="21.7"/>
			<polygon class="st3" points="289.5,247.1 289.5,321.1 315.8,321.1 315.8,293.6 325.8,321.1 340.9,321.1 350.9,293.6 350.9,321.1 
				377.1,321.1 377.1,247.1 			"/>
		</g>
		<polygon id="N_3_" class="st0" points="256.6,247.1 256.6,269.3 247.5,247.1 218.9,247.1 218.9,321.1 246,321.1 246,292.8 
			257.6,321.1 284.2,321.1 284.2,247.1 		"/>
		<path id="O_2_" class="st0" d="M198.9,246.2h-36.5c-8.1,0-14.8,6.8-14.8,15.1v45.6c0,8.3,6.6,15.1,14.8,15.1h36.5
			c8.1,0,14.8-6.8,14.8-15.1v-45.6C213.7,253,207,246.2,198.9,246.2z M185.3,300.8c0,2.6-2.1,4.8-4.7,4.8c-2.6,0-4.7-2.1-4.7-4.8
			v-33.3c0-2.6,2.1-4.8,4.7-4.8c2.6,0,4.7,2.1,4.7,4.8V300.8z"/>
		<path id="R_2_" class="st0" d="M133,281c-0.2,0,0.1,0,0.4,0c5.9,0,10.6-7.6,10.6-17c0-9.3-4.7-16.9-10.5-17H77.6v0v8.1v65.9
			l30.6,0v-30.7c0,0,3.5,0,3.6,0c2,0,3.6,2.1,3.6,4.7h0v0.1c0,0,0,18.9,0,25.9l28.1,0c0,0,0-23,0-23.1
			C143.6,288.6,138.8,281.6,133,281z M110.3,273.6h-2.1v-10.3c0,0,2,0,2.1,0c2.8,0,5.2,2.3,5.2,5.2S113.2,273.6,110.3,273.6z"/>
		<polygon id="I_2_" class="st0" points="72.4,321.1 43.6,321.1 43.6,247.1 72.3,247.1 		"/>
	</g>
	<g>
		<g>
			<path class="st0" d="M101.3,402.3l-2.5-3.9l4.3-2.8l5.7,8.7l-31.6,20.6L74,420L101.3,402.3z"/>
			<path class="st0" d="M97.2,434.8c1.2-0.2,2.3-0.3,3.3-0.4c1-0.1,1.6-0.1,1.8-0.1c-0.8-0.2-1.5-0.5-2.2-0.9
				c-0.6-0.4-1.1-0.9-1.6-1.5c-0.9-1.2-1.4-2.4-1.7-3.7s-0.2-2.7,0.1-4c0.3-1.3,0.9-2.6,1.8-3.9c0.9-1.3,2-2.4,3.3-3.4l0.4-0.3
				c1.5-1.1,3-1.9,4.5-2.4c1.5-0.5,3-0.6,4.5-0.5c1.5,0.2,2.8,0.6,4.1,1.4c1.3,0.8,2.5,1.8,3.5,3.2s1.7,2.8,2,4.2
				c0.3,1.5,0.4,2.9,0.1,4.4c-0.3,1.5-0.9,2.8-1.7,4.2c-0.9,1.3-2.1,2.6-3.5,3.6l-0.4,0.3c-1.7,1.2-3.4,2.2-5.2,2.8
				c-1.8,0.7-3.8,1.1-6,1.4l-15.7,2.2l-3.6-4.8L97.2,434.8z M107.2,432.5c1.7,0,3.4-0.7,5.2-2.1l0.4-0.3c0.9-0.6,1.6-1.4,2.2-2.1
				c0.6-0.8,1-1.6,1.3-2.4c0.3-0.8,0.3-1.6,0.2-2.4c-0.1-0.8-0.4-1.5-0.9-2.2c-0.5-0.7-1.1-1.2-1.8-1.5c-0.7-0.3-1.5-0.5-2.3-0.4
				c-0.8,0-1.7,0.2-2.6,0.6c-0.9,0.4-1.8,0.9-2.6,1.5l-0.4,0.3c-1.7,1.3-2.9,2.8-3.4,4.4c-0.5,1.6-0.3,3.1,0.8,4.5
				C104.1,431.8,105.5,432.5,107.2,432.5z"/>
			<path class="st0" d="M133.6,444.2l-9.5-10.5l3.8-3.4l14.5,16l-0.5,0.4l-36.2,15.2l-4-4.3L133.6,444.2z"/>
			<path class="st0" d="M124.6,480.5c-0.7-1.4-1-2.8-1.1-4.3c-0.1-1.4,0.2-2.8,0.7-4.2c0.5-1.4,1.3-2.6,2.2-3.8l0.4-0.5
				c1.6-1.8,3.3-3,5.2-3.6c1.8-0.6,3.7-0.6,5.6-0.1c-0.3-1.3-0.4-2.6-0.2-3.9c0.2-1.4,0.9-2.7,2-4l0.3-0.4c0.9-1,1.9-1.8,3-2.3
				c1.1-0.5,2.2-0.8,3.4-0.8c1.2,0,2.3,0.1,3.5,0.6c1.2,0.4,2.3,1.1,3.3,2c1,0.9,1.8,1.9,2.4,3c0.6,1.1,0.9,2.3,1.1,3.4
				c0.1,1.2,0,2.3-0.3,3.5c-0.4,1.2-1,2.2-1.8,3.3l-0.3,0.4c-1.1,1.3-2.4,2.2-3.7,2.6c-1.3,0.4-2.6,0.5-4,0.3c0.8,1.8,1,3.7,0.8,5.6
				c-0.3,1.9-1.2,3.8-2.8,5.6l-0.4,0.5c-1,1.2-2.2,2.1-3.5,2.8c-1.3,0.7-2.6,1.1-4.1,1.3c-1.4,0.2-2.9,0-4.4-0.5
				c-1.5-0.5-2.9-1.3-4.3-2.5C126.3,483.2,125.3,481.9,124.6,480.5z M135.5,481.9c1.6-0.3,3.1-1.2,4.5-2.7l0.3-0.3
				c1.4-1.6,2.1-3.2,2.1-4.9c0-1.6-0.6-3-1.9-4.1c-1.3-1.1-2.8-1.6-4.4-1.4c-1.6,0.2-3.1,1.2-4.5,2.8l-0.3,0.3
				c-1.4,1.6-2.1,3.2-2.1,4.8c0,1.6,0.7,3,2,4.2C132.4,481.7,133.9,482.1,135.5,481.9z M146.6,467.4c1.2-0.2,2.3-0.8,3.2-1.8
				l0.2-0.3c0.9-1.1,1.4-2.2,1.4-3.4c0-1.2-0.5-2.2-1.5-3.1c-1-0.8-2.1-1.2-3.3-1c-1.2,0.2-2.3,0.8-3.2,1.9l-0.2,0.3
				c-0.9,1-1.3,2.1-1.4,3.4c0,1.3,0.4,2.3,1.4,3.2S145.4,467.6,146.6,467.4z"/>
		</g>
	</g>
	<g>
		<path class="st0" d="M432.2,486.7l-1.2-20.4c-0.2-2.3-0.4-4.3-0.7-6c-0.3-1.7-1-3.2-1.9-4.5l-0.3-0.4c-1-1.3-2.1-2-3.3-2.2
			c-1.2-0.2-2.4,0.1-3.5,1c-1,0.7-1.6,1.7-1.8,2.8c-0.2,1.1-0.3,2.3-0.1,3.5l-5.3,0.5c-0.8-4.5,0.7-8.2,4.4-11
			c2.5-2,5.1-2.8,7.6-2.5c2.5,0.3,4.7,1.6,6.5,4l0.4,0.5c0.7,0.9,1.2,1.8,1.6,2.8c0.4,1,0.7,2.1,1,3.3c0.2,1.2,0.4,2.5,0.5,3.8
			c0.1,1.4,0.3,2.9,0.4,4.5l0.7,10.9l9.4-7.2l3.1,4l-17,13.1L432.2,486.7z"/>
		<path class="st0" d="M460.8,463.4c-1.8,0.5-3.6,0.5-5.6,0.2c-2-0.4-4-1.2-6.1-2.5c-2.1-1.3-4.2-3-6.2-5.2l-0.6-0.7
			c-2-2.2-3.6-4.4-4.7-6.6c-1.1-2.2-1.7-4.3-2-6.3c-0.2-2,0-3.8,0.6-5.5c0.6-1.7,1.6-3.2,3-4.4c1.4-1.3,3-2.2,4.7-2.6
			c1.7-0.5,3.6-0.5,5.6-0.2c2,0.4,4,1.2,6.1,2.5s4.1,3,6.2,5.2l0.6,0.7c2.1,2.2,3.6,4.4,4.7,6.6c1.1,2.2,1.7,4.3,1.9,6.3
			c0.2,2,0,3.8-0.6,5.5c-0.6,1.7-1.6,3.2-3,4.5C464.1,462,462.5,462.9,460.8,463.4z M463.5,450.8c-0.6-2.7-2.5-5.6-5.5-8.9l-0.5-0.5
			c-3-3.3-5.8-5.4-8.4-6.2c-2.6-0.8-4.7-0.5-6.3,1s-2.1,3.6-1.5,6.2c0.6,2.6,2.5,5.6,5.5,8.9l0.5,0.5c3,3.3,5.8,5.4,8.4,6.2
			c2.6,0.9,4.7,0.6,6.3-1C463.6,455.5,464.1,453.4,463.5,450.8z"/>
		<path class="st0" d="M458.5,421.1l-3.1,3.4l-3.8-3.5l7.1-7.7l27.7,25.5l-3.9,4.3L458.5,421.1z"/>
		<path class="st0" d="M496.3,426.7c-1.4,0.8-2.8,1.2-4.2,1.3c-1.4,0.1-2.9,0-4.3-0.5c-1.4-0.4-2.7-1.1-3.9-2l-0.5-0.4
			c-1.9-1.5-3.2-3.1-3.9-5c-0.7-1.8-0.8-3.7-0.4-5.6c-1.2,0.4-2.5,0.5-3.9,0.4c-1.4-0.1-2.7-0.7-4.1-1.8l-0.4-0.3
			c-1.1-0.8-1.9-1.8-2.4-2.8c-0.6-1.1-0.9-2.2-1-3.3c-0.1-1.2,0-2.3,0.4-3.6c0.4-1.2,1-2.4,1.8-3.4c0.8-1.1,1.8-1.9,2.9-2.6
			c1.1-0.7,2.2-1.1,3.4-1.3c1.1-0.2,2.3-0.1,3.5,0.2c1.2,0.3,2.3,0.8,3.4,1.6l0.4,0.3c1.4,1.1,2.3,2.2,2.8,3.5
			c0.5,1.3,0.7,2.6,0.6,3.9c1.8-0.9,3.6-1.2,5.5-1.1c1.9,0.2,3.9,1,5.8,2.5l0.5,0.4c1.2,0.9,2.2,2,3,3.3c0.8,1.2,1.3,2.6,1.5,4
			c0.2,1.4,0.1,2.9-0.3,4.4c-0.4,1.5-1.2,3-2.3,4.5C498.9,424.9,497.6,426,496.3,426.7z M482,405.4c-0.3-1.2-1-2.2-2-3.1l-0.3-0.2
			c-1.1-0.9-2.3-1.3-3.5-1.2c-1.2,0.1-2.2,0.6-3,1.6c-0.8,1-1.1,2.1-0.8,3.3c0.2,1.2,0.9,2.2,2.1,3.1l0.3,0.2
			c1.1,0.8,2.2,1.2,3.5,1.2c1.3,0,2.3-0.6,3.1-1.6C482,407.8,482.3,406.7,482,405.4z M497.1,415.8c-0.3-1.6-1.3-3-3-4.3l-0.4-0.3
			c-1.7-1.3-3.4-1.9-5-1.8c-1.6,0.1-3,0.8-4,2.1c-1.1,1.4-1.4,2.9-1.1,4.5c0.3,1.6,1.3,3.1,3,4.4l0.3,0.3c1.7,1.3,3.3,1.9,4.9,1.8
			c1.6-0.1,3-0.8,4.1-2.2C497.1,418.9,497.4,417.4,497.1,415.8z"/>
	</g>
</g>
</svg>
